<mxfile host="app.diagrams.net" modified="2022-02-03T08:05:15.468Z" agent="5.0 (Windows NT 10.0; Win64; x64) AppleWebKit/537.36 (KHTML, like Gecko) Chrome/97.0.4692.99 Safari/537.36" etag="91zB9kI0fkZTDFhu3p-v" version="16.5.3" type="github">
  <diagram id="S8kexdlC8seh0NZKbYJ4" name="Page-1">
    <mxGraphModel dx="1038" dy="571" grid="1" gridSize="10" guides="1" tooltips="1" connect="1" arrows="1" fold="1" page="1" pageScale="1" pageWidth="850" pageHeight="1100" math="0" shadow="0">
      <root>
        <mxCell id="0" />
        <mxCell id="1" parent="0" />
        <mxCell id="JQjpABJw8iAlLippr4K8-1" value="Address" style="swimlane;fontStyle=1;align=center;verticalAlign=top;childLayout=stackLayout;horizontal=1;startSize=26;horizontalStack=0;resizeParent=1;resizeParentMax=0;resizeLast=0;collapsible=1;marginBottom=0;" parent="1" vertex="1">
          <mxGeometry x="80" y="190" width="290" height="190" as="geometry" />
        </mxCell>
        <mxCell id="JQjpABJw8iAlLippr4K8-2" value="- street: String&#xa;&#xa;- city: String&#xa;&#xa;- state: String&#xa;" style="text;strokeColor=none;fillColor=none;align=left;verticalAlign=top;spacingLeft=4;spacingRight=4;overflow=hidden;rotatable=0;points=[[0,0.5],[1,0.5]];portConstraint=eastwest;" parent="JQjpABJw8iAlLippr4K8-1" vertex="1">
          <mxGeometry y="26" width="290" height="94" as="geometry" />
        </mxCell>
        <mxCell id="JQjpABJw8iAlLippr4K8-3" value="" style="line;strokeWidth=1;fillColor=none;align=left;verticalAlign=middle;spacingTop=-1;spacingLeft=3;spacingRight=3;rotatable=0;labelPosition=right;points=[];portConstraint=eastwest;" parent="JQjpABJw8iAlLippr4K8-1" vertex="1">
          <mxGeometry y="120" width="290" height="8" as="geometry" />
        </mxCell>
        <mxCell id="JQjpABJw8iAlLippr4K8-4" value="+ getAddressDetails(): String&#xa;&#xa;+ updateAddressDetails(addressDetail: String): void" style="text;strokeColor=none;fillColor=none;align=left;verticalAlign=top;spacingLeft=4;spacingRight=4;overflow=hidden;rotatable=0;points=[[0,0.5],[1,0.5]];portConstraint=eastwest;" parent="JQjpABJw8iAlLippr4K8-1" vertex="1">
          <mxGeometry y="128" width="290" height="62" as="geometry" />
        </mxCell>
        <mxCell id="JQjpABJw8iAlLippr4K8-5" value="Passenger" style="swimlane;fontStyle=1;align=center;verticalAlign=top;childLayout=stackLayout;horizontal=1;startSize=26;horizontalStack=0;resizeParent=1;resizeParentMax=0;resizeLast=0;collapsible=1;marginBottom=0;" parent="1" vertex="1">
          <mxGeometry x="470" y="190" width="160" height="190" as="geometry" />
        </mxCell>
        <mxCell id="JQjpABJw8iAlLippr4K8-6" value="- id: int&#xa;&#xa;- address: Address&#xa;&#xa;- contact: Contact&#xa;" style="text;strokeColor=none;fillColor=none;align=left;verticalAlign=top;spacingLeft=4;spacingRight=4;overflow=hidden;rotatable=0;points=[[0,0.5],[1,0.5]];portConstraint=eastwest;" parent="JQjpABJw8iAlLippr4K8-5" vertex="1">
          <mxGeometry y="26" width="160" height="94" as="geometry" />
        </mxCell>
        <mxCell id="JQjpABJw8iAlLippr4K8-7" value="" style="line;strokeWidth=1;fillColor=none;align=left;verticalAlign=middle;spacingTop=-1;spacingLeft=3;spacingRight=3;rotatable=0;labelPosition=right;points=[];portConstraint=eastwest;" parent="JQjpABJw8iAlLippr4K8-5" vertex="1">
          <mxGeometry y="120" width="160" height="8" as="geometry" />
        </mxCell>
        <mxCell id="JQjpABJw8iAlLippr4K8-8" value="+ getContact(): Contact&#xa;&#xa;+ getAddress(): Address" style="text;strokeColor=none;fillColor=none;align=left;verticalAlign=top;spacingLeft=4;spacingRight=4;overflow=hidden;rotatable=0;points=[[0,0.5],[1,0.5]];portConstraint=eastwest;" parent="JQjpABJw8iAlLippr4K8-5" vertex="1">
          <mxGeometry y="128" width="160" height="62" as="geometry" />
        </mxCell>
        <mxCell id="JQjpABJw8iAlLippr4K8-9" value="Contact" style="swimlane;fontStyle=1;align=center;verticalAlign=top;childLayout=stackLayout;horizontal=1;startSize=26;horizontalStack=0;resizeParent=1;resizeParentMax=0;resizeLast=0;collapsible=1;marginBottom=0;" parent="1" vertex="1">
          <mxGeometry x="720" y="190" width="290" height="190" as="geometry" />
        </mxCell>
        <mxCell id="JQjpABJw8iAlLippr4K8-10" value="- name: String&#xa;&#xa;- phone: String&#xa;&#xa;- email: String&#xa;" style="text;strokeColor=none;fillColor=none;align=left;verticalAlign=top;spacingLeft=4;spacingRight=4;overflow=hidden;rotatable=0;points=[[0,0.5],[1,0.5]];portConstraint=eastwest;" parent="JQjpABJw8iAlLippr4K8-9" vertex="1">
          <mxGeometry y="26" width="290" height="94" as="geometry" />
        </mxCell>
        <mxCell id="JQjpABJw8iAlLippr4K8-11" value="" style="line;strokeWidth=1;fillColor=none;align=left;verticalAlign=middle;spacingTop=-1;spacingLeft=3;spacingRight=3;rotatable=0;labelPosition=right;points=[];portConstraint=eastwest;" parent="JQjpABJw8iAlLippr4K8-9" vertex="1">
          <mxGeometry y="120" width="290" height="8" as="geometry" />
        </mxCell>
        <mxCell id="JQjpABJw8iAlLippr4K8-12" value="+ getContactDetails(): String&#xa;&#xa;+ updateContactDetails(contactDetail: String): void" style="text;strokeColor=none;fillColor=none;align=left;verticalAlign=top;spacingLeft=4;spacingRight=4;overflow=hidden;rotatable=0;points=[[0,0.5],[1,0.5]];portConstraint=eastwest;" parent="JQjpABJw8iAlLippr4K8-9" vertex="1">
          <mxGeometry y="128" width="290" height="62" as="geometry" />
        </mxCell>
        <mxCell id="JQjpABJw8iAlLippr4K8-13" value="Ticket" style="swimlane;fontStyle=1;align=center;verticalAlign=top;childLayout=stackLayout;horizontal=1;startSize=26;horizontalStack=0;resizeParent=1;resizeParentMax=0;resizeLast=0;collapsible=1;marginBottom=0;" parent="1" vertex="1">
          <mxGeometry x="470" y="440" width="170" height="440" as="geometry" />
        </mxCell>
        <mxCell id="JQjpABJw8iAlLippr4K8-14" value="- pnr: String&#xa;&#xa;- from: String&#xa;&#xa;- to: String&#xa;&#xa;- flight: Flight&#xa;&#xa;- departureDateTime: String&#xa;&#xa;- arrivalDateTime: String&#xa;&#xa;- passenger: Passenger&#xa;&#xa;- seatNo: String&#xa;&#xa;- price: float&#xa;&#xa;- cancelled: boolean&#xa;" style="text;strokeColor=none;fillColor=none;align=left;verticalAlign=top;spacingLeft=4;spacingRight=4;overflow=hidden;rotatable=0;points=[[0,0.5],[1,0.5]];portConstraint=eastwest;" parent="JQjpABJw8iAlLippr4K8-13" vertex="1">
          <mxGeometry y="26" width="170" height="304" as="geometry" />
        </mxCell>
        <mxCell id="JQjpABJw8iAlLippr4K8-15" value="" style="line;strokeWidth=1;fillColor=none;align=left;verticalAlign=middle;spacingTop=-1;spacingLeft=3;spacingRight=3;rotatable=0;labelPosition=right;points=[];portConstraint=eastwest;" parent="JQjpABJw8iAlLippr4K8-13" vertex="1">
          <mxGeometry y="330" width="170" height="8" as="geometry" />
        </mxCell>
        <mxCell id="JQjpABJw8iAlLippr4K8-16" value="+ checkStatus(): String&#xa;&#xa;+ getFlightDuration(): int&#xa;&#xa;+ cancel(): void&#xa;" style="text;strokeColor=none;fillColor=none;align=left;verticalAlign=top;spacingLeft=4;spacingRight=4;overflow=hidden;rotatable=0;points=[[0,0.5],[1,0.5]];portConstraint=eastwest;" parent="JQjpABJw8iAlLippr4K8-13" vertex="1">
          <mxGeometry y="338" width="170" height="102" as="geometry" />
        </mxCell>
        <mxCell id="JQjpABJw8iAlLippr4K8-17" value="Flight" style="swimlane;fontStyle=1;align=center;verticalAlign=top;childLayout=stackLayout;horizontal=1;startSize=26;horizontalStack=0;resizeParent=1;resizeParentMax=0;resizeLast=0;collapsible=1;marginBottom=0;" parent="1" vertex="1">
          <mxGeometry x="150" y="440" width="220" height="240" as="geometry" />
        </mxCell>
        <mxCell id="JQjpABJw8iAlLippr4K8-18" value="- flightNumber: String&#xa;&#xa;- airline: String&#xa;&#xa;- capacity: int&#xa;&#xa;- bookedSeats: int" style="text;strokeColor=none;fillColor=none;align=left;verticalAlign=top;spacingLeft=4;spacingRight=4;overflow=hidden;rotatable=0;points=[[0,0.5],[1,0.5]];portConstraint=eastwest;" parent="JQjpABJw8iAlLippr4K8-17" vertex="1">
          <mxGeometry y="26" width="220" height="124" as="geometry" />
        </mxCell>
        <mxCell id="JQjpABJw8iAlLippr4K8-19" value="" style="line;strokeWidth=1;fillColor=none;align=left;verticalAlign=middle;spacingTop=-1;spacingLeft=3;spacingRight=3;rotatable=0;labelPosition=right;points=[];portConstraint=eastwest;" parent="JQjpABJw8iAlLippr4K8-17" vertex="1">
          <mxGeometry y="150" width="220" height="8" as="geometry" />
        </mxCell>
        <mxCell id="JQjpABJw8iAlLippr4K8-20" value="+ getFlightDetails(): String&#xa;&#xa;+ checkAvailability(): boolean&#xa;&#xa;+ incrementBookingCounter(): void" style="text;strokeColor=none;fillColor=none;align=left;verticalAlign=top;spacingLeft=4;spacingRight=4;overflow=hidden;rotatable=0;points=[[0,0.5],[1,0.5]];portConstraint=eastwest;" parent="JQjpABJw8iAlLippr4K8-17" vertex="1">
          <mxGeometry y="158" width="220" height="82" as="geometry" />
        </mxCell>
        <mxCell id="JQjpABJw8iAlLippr4K8-21" value="Regular Ticket" style="swimlane;fontStyle=1;align=center;verticalAlign=top;childLayout=stackLayout;horizontal=1;startSize=26;horizontalStack=0;resizeParent=1;resizeParentMax=0;resizeLast=0;collapsible=1;marginBottom=0;" parent="1" vertex="1">
          <mxGeometry x="210" y="960" width="310" height="120" as="geometry" />
        </mxCell>
        <mxCell id="JQjpABJw8iAlLippr4K8-22" value="- specialServices: String" style="text;strokeColor=none;fillColor=none;align=left;verticalAlign=top;spacingLeft=4;spacingRight=4;overflow=hidden;rotatable=0;points=[[0,0.5],[1,0.5]];portConstraint=eastwest;" parent="JQjpABJw8iAlLippr4K8-21" vertex="1">
          <mxGeometry y="26" width="310" height="26" as="geometry" />
        </mxCell>
        <mxCell id="JQjpABJw8iAlLippr4K8-23" value="" style="line;strokeWidth=1;fillColor=none;align=left;verticalAlign=middle;spacingTop=-1;spacingLeft=3;spacingRight=3;rotatable=0;labelPosition=right;points=[];portConstraint=eastwest;" parent="JQjpABJw8iAlLippr4K8-21" vertex="1">
          <mxGeometry y="52" width="310" height="8" as="geometry" />
        </mxCell>
        <mxCell id="JQjpABJw8iAlLippr4K8-24" value="+ getSpecialServices(): String&#xa;&#xa;+ updateSpecialServices(specialServices: String): void" style="text;strokeColor=none;fillColor=none;align=left;verticalAlign=top;spacingLeft=4;spacingRight=4;overflow=hidden;rotatable=0;points=[[0,0.5],[1,0.5]];portConstraint=eastwest;" parent="JQjpABJw8iAlLippr4K8-21" vertex="1">
          <mxGeometry y="60" width="310" height="60" as="geometry" />
        </mxCell>
        <mxCell id="JQjpABJw8iAlLippr4K8-25" value="TouristTicket" style="swimlane;fontStyle=1;align=center;verticalAlign=top;childLayout=stackLayout;horizontal=1;startSize=26;horizontalStack=0;resizeParent=1;resizeParentMax=0;resizeLast=0;collapsible=1;marginBottom=0;" parent="1" vertex="1">
          <mxGeometry x="590" y="960" width="290" height="220" as="geometry" />
        </mxCell>
        <mxCell id="JQjpABJw8iAlLippr4K8-26" value="- hotelAddress: String&#xa;&#xa;- selectedTouristLocation: String[0...5]&#xa;&#xa;&#xa;" style="text;strokeColor=none;fillColor=none;align=left;verticalAlign=top;spacingLeft=4;spacingRight=4;overflow=hidden;rotatable=0;points=[[0,0.5],[1,0.5]];portConstraint=eastwest;" parent="JQjpABJw8iAlLippr4K8-25" vertex="1">
          <mxGeometry y="26" width="290" height="64" as="geometry" />
        </mxCell>
        <mxCell id="JQjpABJw8iAlLippr4K8-27" value="" style="line;strokeWidth=1;fillColor=none;align=left;verticalAlign=middle;spacingTop=-1;spacingLeft=3;spacingRight=3;rotatable=0;labelPosition=right;points=[];portConstraint=eastwest;" parent="JQjpABJw8iAlLippr4K8-25" vertex="1">
          <mxGeometry y="90" width="290" height="8" as="geometry" />
        </mxCell>
        <mxCell id="JQjpABJw8iAlLippr4K8-28" value="+ getHotelAddress(): String&#xa;&#xa;+ getTouristLocations(): String[0..5]&#xa;&#xa;+ removeTouristLocations(location: String): void&#xa;&#xa;+ addTouristLocations(location: String): void" style="text;strokeColor=none;fillColor=none;align=left;verticalAlign=top;spacingLeft=4;spacingRight=4;overflow=hidden;rotatable=0;points=[[0,0.5],[1,0.5]];portConstraint=eastwest;" parent="JQjpABJw8iAlLippr4K8-25" vertex="1">
          <mxGeometry y="98" width="290" height="122" as="geometry" />
        </mxCell>
        <mxCell id="JQjpABJw8iAlLippr4K8-31" value="Extends" style="endArrow=block;endSize=16;endFill=0;html=1;rounded=0;exitX=0.868;exitY=0.017;exitDx=0;exitDy=0;exitPerimeter=0;" parent="1" source="JQjpABJw8iAlLippr4K8-21" edge="1">
          <mxGeometry width="160" relative="1" as="geometry">
            <mxPoint x="460" y="950" as="sourcePoint" />
            <mxPoint x="530" y="880" as="targetPoint" />
          </mxGeometry>
        </mxCell>
        <mxCell id="JQjpABJw8iAlLippr4K8-36" value="Extends" style="endArrow=block;endSize=16;endFill=0;html=1;rounded=0;entryX=0.764;entryY=0.993;entryDx=0;entryDy=0;entryPerimeter=0;exitX=0.298;exitY=0.001;exitDx=0;exitDy=0;exitPerimeter=0;" parent="1" source="JQjpABJw8iAlLippr4K8-25" target="JQjpABJw8iAlLippr4K8-16" edge="1">
          <mxGeometry width="160" relative="1" as="geometry">
            <mxPoint x="320" y="1050" as="sourcePoint" />
            <mxPoint x="480" y="1050" as="targetPoint" />
          </mxGeometry>
        </mxCell>
        <mxCell id="JQjpABJw8iAlLippr4K8-38" value="" style="endArrow=diamondThin;endFill=0;endSize=24;html=1;rounded=0;exitX=1.003;exitY=0.566;exitDx=0;exitDy=0;exitPerimeter=0;entryX=0;entryY=0.231;entryDx=0;entryDy=0;entryPerimeter=0;" parent="1" source="JQjpABJw8iAlLippr4K8-18" target="JQjpABJw8iAlLippr4K8-14" edge="1">
          <mxGeometry width="160" relative="1" as="geometry">
            <mxPoint x="380" y="463.9999728732639" as="sourcePoint" />
            <mxPoint x="460" y="650" as="targetPoint" />
          </mxGeometry>
        </mxCell>
        <mxCell id="JQjpABJw8iAlLippr4K8-39" value="" style="endArrow=diamondThin;endFill=0;endSize=24;html=1;rounded=0;entryX=0.5;entryY=0;entryDx=0;entryDy=0;exitX=0.528;exitY=1.039;exitDx=0;exitDy=0;exitPerimeter=0;" parent="1" source="JQjpABJw8iAlLippr4K8-8" target="JQjpABJw8iAlLippr4K8-13" edge="1">
          <mxGeometry width="160" relative="1" as="geometry">
            <mxPoint x="320" y="210" as="sourcePoint" />
            <mxPoint x="480" y="210" as="targetPoint" />
          </mxGeometry>
        </mxCell>
        <mxCell id="JQjpABJw8iAlLippr4K8-40" value="" style="endArrow=diamondThin;endFill=1;endSize=24;html=1;rounded=0;exitX=1;exitY=0.5;exitDx=0;exitDy=0;" parent="1" source="JQjpABJw8iAlLippr4K8-2" target="JQjpABJw8iAlLippr4K8-6" edge="1">
          <mxGeometry width="160" relative="1" as="geometry">
            <mxPoint x="330" y="410" as="sourcePoint" />
            <mxPoint x="490" y="410" as="targetPoint" />
          </mxGeometry>
        </mxCell>
        <mxCell id="JQjpABJw8iAlLippr4K8-42" value="" style="endArrow=diamondThin;endFill=1;endSize=24;html=1;rounded=0;exitX=-0.007;exitY=0.74;exitDx=0;exitDy=0;exitPerimeter=0;entryX=1;entryY=0.787;entryDx=0;entryDy=0;entryPerimeter=0;" parent="1" source="JQjpABJw8iAlLippr4K8-10" target="JQjpABJw8iAlLippr4K8-6" edge="1">
          <mxGeometry width="160" relative="1" as="geometry">
            <mxPoint x="640" y="300" as="sourcePoint" />
            <mxPoint x="650" y="290" as="targetPoint" />
          </mxGeometry>
        </mxCell>
      </root>
    </mxGraphModel>
  </diagram>
</mxfile>
